<svg width="9" height="9" viewBox="0 0 9 9" fill="none" xmlns="http://www.w3.org/2000/svg">
<circle cx="4.32155" cy="4.81423" r="3.97487" fill="#F9FCFF"/>
<path d="M4.6899 4.97607L6.30678 3.35919C6.3637 3.30226 6.3637 3.20996 6.30678 3.15305C6.24985 3.09613 6.15756 3.09612 6.10064 3.15305L4.48375 4.76993L2.86688 3.15305C2.80995 3.09612 2.71766 3.09612 2.66074 3.15305C2.60382 3.20997 2.60381 3.30227 2.66074 3.35919L4.27761 4.97606L2.66074 6.59295C2.60381 6.64987 2.60381 6.74217 2.66074 6.79909C2.6892 6.82754 2.7265 6.84177 2.76381 6.84177C2.80112 6.84177 2.83842 6.82754 2.86688 6.79909L4.48375 5.18221L6.10063 6.79909C6.12909 6.82754 6.1664 6.84177 6.2037 6.84177C6.24101 6.84177 6.27831 6.82754 6.30678 6.79909C6.3637 6.74216 6.3637 6.64987 6.30678 6.59295L4.6899 4.97607Z" fill="#041F4A"/>
</svg>
